<svg xmlns="http://www.w3.org/2000/svg" height="684" width="790"><path d="M0 0v684h133v-32c0-17.019.062-32.386 17-41.752 10.422-5.764 25.504-3.248 37-3.248h417c10.798 0 25.042-2.269 35 2.709 17.84 8.919 18 24.946 18 42.291v32h133V0H657v32c0 17.012-.183 32.474-17 41.752C629.633 79.472 614.428 77 603 77H185c-11.208 0-24.737 2.073-35-3.328-16.844-8.865-17-24.965-17-41.672V0Z" style="fill:#1d1511;stroke:none"/><path d="M133 0v34c0 15.765.118 31.314 16 39.672C159.263 79.073 172.792 77 184 77h420c11.428 0 26.633 2.472 37-3.248 16.222-8.95 16-24.413 16-40.752V0H133M35.189 34.028c-3.234 1.876-4.038 5.526-4.17 8.972-.32 8.303-.062 16.69-.018 25 .02 3.94.015 8.396 3.393 11.107C38.327 82.261 45.297 81 50 81h34c4.483 0 10.837 1.103 14.891-1.179 3.697-2.081 4.052-6.003 4.105-9.821.116-8.328.047-16.672.003-25-.019-3.727.034-7.879-3.227-10.397C96.092 31.763 89.362 33 85 33H50c-4.314 0-10.945-1.216-14.811 1.028m655.92 0c-3.696 2.08-4.052 6.175-4.105 9.972-.112 7.996-.017 16.003-.004 24 .006 3.61-.344 7.788 2.434 10.566C693.142 82.275 700.242 81 705 81h35c4.466 0 10.804 1.109 14.786-1.318 3.771-2.298 4.156-6.698 4.21-10.682.109-7.995.045-16.005.003-24-.019-3.727.034-7.879-3.227-10.397C751.918 31.63 744.577 33 740 33h-34c-4.375 0-10.947-1.192-14.891 1.028M36.094 147.742c-3.04 1.273-4.547 4.123-4.96 7.259-1.147 8.703-.176 18.221-.133 26.999.017 3.567-.158 7.794 2.513 10.566C37.116 196.305 44.312 195 49 195h35c4.375 0 10.947 1.192 14.891-1.028 3.696-2.08 4.052-6.174 4.105-9.972.116-8.328.047-16.672.003-25-.019-3.684.08-7.735-3.227-10.142C95.645 145.855 88.796 147 84 147H51c-4.527 0-10.65-1.039-14.906.742m655.015.286c-3.335 1.877-3.984 5.472-4.094 8.972-.271 8.645-.06 17.351-.014 26 .019 3.726-.034 7.879 3.227 10.397C694.082 196.371 701.423 195 706 195h34c4.446 0 10.862 1.125 14.867-1.179 3.539-2.037 4.02-6.125 4.118-9.821.212-7.988.019-16.009.015-24-.002-3.591.51-7.825-2.318-10.566C752.883 145.75 745.817 147 741 147h-35c-4.375 0-10.947-1.192-14.891 1.028M158 149.429c-11.767 1.746-21.686 10.924-24.529 22.571-1.443 5.91-.471 12.945-.471 19v305c0 10.071-.052 21.012 7.188 28.96C150.612 536.402 164.931 535 179 535h415c13.532 0 28.758 1.922 42-1.235 10.642-2.538 17.489-11.731 19.996-21.765 1.768-7.076 1.004-14.753 1.004-22V189c0-12.27.241-23.941-10.015-32.671C635.823 146.829 620.659 149 607 149H199c-13.356 0-27.782-1.533-41 .429M36.02 261.988c-5.168 2.465-5.018 7.037-5.02 12.012v22c.006 3.849-.308 8.386 2.653 11.347C37.41 311.105 44.186 310 49 310h34c4.93 0 11.424 1.058 15.891-1.457 4.044-2.276 4.086-6.41 4.108-10.543.044-8.332.044-16.668 0-25-.019-3.694.075-7.587-3.227-9.991C95.535 259.926 88.924 261 84 261H51c-4.59 0-10.73-1.039-14.98.988m656.995-.335c-5.473 1.771-5.988 6.308-6.014 11.347-.041 7.666-.004 15.334-.001 23 .001 3.788-.599 8.482 2.434 11.347C693.536 311.224 700.857 310 706 310h31c5.084 0 11.065.824 15.957-.804 4.738-1.577 5.891-5.624 6.028-10.196.237-7.986.016-16.011.015-24 0-3.76.708-8.231-2.318-11.057C752.334 259.883 745.448 261 740 261h-31c-5.029 0-11.144-.914-15.985.653M36.019 376.742c-4.568 1.824-4.988 5.928-5.018 10.258-.057 8.328-.1 16.672.003 25 .045 3.633.16 7.917 3.275 10.397C38.046 425.396 45.484 424 50 424h32c4.942 0 11.287 1.009 15.956-.894 4.414-1.798 4.981-5.853 5.04-10.106.112-7.996.017-16.003.004-24-.006-3.565.375-7.781-2.434-10.486C96.775 374.862 89.789 376 85 376H52c-4.874 0-11.378-1.096-15.98.742m656.024 0c-4.405 1.795-4.981 6.046-5.04 10.258-.116 8.328-.047 16.672-.003 25 .019 3.726-.034 7.879 3.227 10.397C694.082 425.371 701.423 424 706 424h33c4.551 0 10.659 1.028 14.945-.742 3.856-1.593 4.823-5.463 5.015-9.258.437-8.621.058-17.368.04-26-.008-3.772.221-7.878-3.148-10.397C751.907 374.654 744.644 376 740 376h-33c-4.57 0-10.646-1.014-14.956.742M36.094 490.843C31.113 492.919 31.01 497.305 31 502c-.016 7.997-.095 16.003.004 24 .046 3.758.24 7.808 3.275 10.486C38.319 540.051 45.038 539 50 539h32c4.954 0 11.342 1.035 15.956-1.089 4.71-2.169 5.019-6.291 5.043-10.911.042-7.999.014-16.001.001-24-.007-3.94.353-8.536-3.228-11.142C95.645 488.855 88.796 490 84 490H52c-4.885 0-11.311-1.071-15.906.843m655.95-.101c-4.405 1.795-4.981 6.046-5.04 10.258-.112 7.997-.007 16.003-.004 24 .001 3.785-.59 8.339 2.434 11.196 4.021 3.8 10.511 2.804 15.566 2.804h34c4.445 0 10.908 1.155 14.945-1.028 3.704-2.002 4.817-6.066 5.015-9.972.403-7.961.041-16.029.04-24 0-3.886.778-8.739-2.573-11.517C752.092 488.888 745.221 490 740 490h-33c-4.57 0-10.646-1.014-14.956.742M35.109 606.028c-3.335 1.877-3.984 5.472-4.094 8.972-.26 8.312-.058 16.684-.014 25 .02 3.941.015 8.396 3.393 11.107C38.327 654.262 45.297 653 50 653h33c4.93 0 11.424 1.058 15.891-1.457 4.044-2.276 4.086-6.41 4.108-10.543.042-7.999.017-16.001.001-24-.008-3.772.221-7.878-3.148-10.397C95.907 603.654 88.644 605 84 605H50c-4.375 0-10.947-1.192-14.891 1.028m656 0c-3.335 1.877-3.984 5.472-4.094 8.972-.26 8.315-.029 16.681-.015 25 .007 3.916-.28 8.26 2.943 11.107C693.579 654.317 700.524 653 705 653h35c4.465 0 10.804 1.109 14.786-1.318 3.771-2.298 4.156-6.699 4.21-10.682.109-7.995.045-16.005.003-24-.019-3.727.034-7.879-3.227-10.397C751.918 603.629 744.577 605 740 605h-34c-4.375 0-10.947-1.192-14.891 1.028M133 684h524v-34c0-16.435-.107-31.845-17-40.291-9.958-4.978-24.202-2.709-35-2.709H186c-11.496 0-26.578-2.516-37 3.248-15.994 8.844-16 23.683-16 39.752z" style="fill:#fff;fill-opacity:1;stroke:none"/></svg>